<svg width="36" height="85" viewBox="0 0 36 85" fill="none" xmlns="http://www.w3.org/2000/svg">
<g opacity="0.3">
<mask id="mask0_269_1034" style="mask-type:alpha" maskUnits="userSpaceOnUse" x="0" y="0" width="78" height="85">
<path d="M6.82227 47.8402L28.1753 18.2891L49.5284 47.8402L28.1753 77.3912L6.82227 47.8402Z" fill="url(#paint0_linear_269_1034)"/>
<path d="M34.2578 29.9792L56.1071 0L77.9563 29.9792L56.1071 59.9584L34.2578 29.9792Z" fill="url(#paint1_linear_269_1034)"/>
<path d="M16.3047 55.2975L35.5606 28.7969L54.8164 55.2975L35.5606 81.7982L16.3047 55.2975Z" fill="url(#paint2_linear_269_1034)"/>
<path d="M28.1602 10.639L35.5956 0.34375L43.031 10.639L35.5956 20.9342L28.1602 10.639Z" fill="url(#paint3_linear_269_1034)"/>
<path d="M0.722656 39.0496L14.0683 19.9844L27.414 39.0496L14.0683 58.1148L0.722656 39.0496Z" fill="url(#paint4_linear_269_1034)"/>
<path d="M20.3711 49.9487L45.3465 15.25L70.322 49.9487L45.3465 84.6474L20.3711 49.9487Z" fill="url(#paint5_linear_269_1034)"/>
</mask>
<g mask="url(#mask0_269_1034)">
<rect x="-0.96875" y="-2.71094" width="80.6221" height="90.107" fill="#DAA75B"/>
</g>
</g>
<defs>
<linearGradient id="paint0_linear_269_1034" x1="28.1753" y1="18.2891" x2="28.1753" y2="77.3912" gradientUnits="userSpaceOnUse">
<stop stop-color="white" stop-opacity="0.79"/>
<stop offset="1" stop-color="#8196BD" stop-opacity="0"/>
</linearGradient>
<linearGradient id="paint1_linear_269_1034" x1="56.1071" y1="0" x2="56.1071" y2="59.9584" gradientUnits="userSpaceOnUse">
<stop stop-color="white" stop-opacity="0.79"/>
<stop offset="1" stop-color="#8196BD" stop-opacity="0"/>
</linearGradient>
<linearGradient id="paint2_linear_269_1034" x1="35.5606" y1="28.7969" x2="35.5606" y2="81.7982" gradientUnits="userSpaceOnUse">
<stop stop-color="white"/>
<stop offset="1" stop-color="#8196BD" stop-opacity="0"/>
</linearGradient>
<linearGradient id="paint3_linear_269_1034" x1="35.5956" y1="0.34375" x2="35.5956" y2="20.9342" gradientUnits="userSpaceOnUse">
<stop stop-color="white"/>
<stop offset="1" stop-color="#8196BD" stop-opacity="0"/>
</linearGradient>
<linearGradient id="paint4_linear_269_1034" x1="14.0683" y1="19.9844" x2="14.0683" y2="58.1148" gradientUnits="userSpaceOnUse">
<stop stop-color="white"/>
<stop offset="1" stop-color="#8196BD" stop-opacity="0"/>
</linearGradient>
<linearGradient id="paint5_linear_269_1034" x1="45.3465" y1="15.25" x2="45.3465" y2="84.6474" gradientUnits="userSpaceOnUse">
<stop stop-color="white" stop-opacity="0.35"/>
<stop offset="1" stop-color="#8196BD" stop-opacity="0"/>
</linearGradient>
</defs>
</svg>
