<svg width="49" height="95" viewBox="0 0 49 95" fill="none" xmlns="http://www.w3.org/2000/svg">
<g opacity="0.3">
<mask id="mask0_269_1043" style="mask-type:alpha" maskUnits="userSpaceOnUse" x="-37" y="0" width="87" height="95">
<path d="M-30.1211 53.7673L-6.37071 20.8984L17.3797 53.7673L-6.37071 86.6361L-30.1211 53.7673Z" fill="url(#paint0_linear_269_1043)"/>
<path d="M0.396484 33.8919L24.6988 0.546875L49.0011 33.8919L24.6988 67.2369L0.396484 33.8919Z" fill="url(#paint1_linear_269_1043)"/>
<path d="M-19.5723 62.0462L1.84549 32.5703L23.2632 62.0462L1.84549 91.5222L-19.5723 62.0462Z" fill="url(#paint2_linear_269_1043)"/>
<path d="M-6.38477 12.373L1.88546 0.921875L10.1557 12.373L1.88546 23.824L-6.38477 12.373Z" fill="url(#paint3_linear_269_1043)"/>
<path d="M-15.0508 56.0944L12.7287 17.5L40.5082 56.0944L12.7287 94.6887L-15.0508 56.0944Z" fill="url(#paint4_linear_269_1043)"/>
</mask>
<g mask="url(#mask0_269_1043)">
<rect x="-38.1602" y="-3.47656" width="89.6736" height="100.223" fill="#5C1A53"/>
</g>
</g>
<defs>
<linearGradient id="paint0_linear_269_1043" x1="-6.37071" y1="20.8984" x2="-6.37071" y2="86.6361" gradientUnits="userSpaceOnUse">
<stop stop-color="white" stop-opacity="0.79"/>
<stop offset="1" stop-color="#8196BD" stop-opacity="0"/>
</linearGradient>
<linearGradient id="paint1_linear_269_1043" x1="24.6988" y1="0.546875" x2="24.6988" y2="67.2369" gradientUnits="userSpaceOnUse">
<stop stop-color="white" stop-opacity="0.79"/>
<stop offset="1" stop-color="#8196BD" stop-opacity="0"/>
</linearGradient>
<linearGradient id="paint2_linear_269_1043" x1="1.84549" y1="32.5703" x2="1.84549" y2="91.5222" gradientUnits="userSpaceOnUse">
<stop stop-color="white"/>
<stop offset="1" stop-color="#8196BD" stop-opacity="0"/>
</linearGradient>
<linearGradient id="paint3_linear_269_1043" x1="1.88546" y1="0.921875" x2="1.88546" y2="23.824" gradientUnits="userSpaceOnUse">
<stop stop-color="white"/>
<stop offset="1" stop-color="#8196BD" stop-opacity="0"/>
</linearGradient>
<linearGradient id="paint4_linear_269_1043" x1="12.7287" y1="17.5" x2="12.7287" y2="94.6887" gradientUnits="userSpaceOnUse">
<stop stop-color="white" stop-opacity="0.35"/>
<stop offset="1" stop-color="#8196BD" stop-opacity="0"/>
</linearGradient>
</defs>
</svg>
