<svg width="200" height="376" viewBox="0 0 200 376" fill="none" xmlns="http://www.w3.org/2000/svg">
<g opacity="0.3">
<mask id="mask0_5_950" style="mask-type:alpha" maskUnits="userSpaceOnUse" x="-143" y="0" width="343" height="376">
<path d="M-115.98 211.975L-21.3743 81.0469L73.2319 211.975L-21.3743 342.903L-115.98 211.975Z" fill="url(#paint0_linear_5_950)"/>
<path d="M5.58203 132.825L102.387 0L199.191 132.825L102.387 265.65L5.58203 132.825Z" fill="url(#paint1_linear_5_950)"/>
<path d="M-73.9609 244.983L11.3536 127.57L96.6681 244.983L11.3536 362.396L-73.9609 244.983Z" fill="url(#paint2_linear_5_950)"/>
<path d="M-21.4297 47.1059L11.5135 1.49219L44.4568 47.1059L11.5135 92.7196L-21.4297 47.1059Z" fill="url(#paint3_linear_5_950)"/>
<path d="M-55.9492 221.266L54.7062 67.5313L165.362 221.266L54.7062 375.001L-55.9492 221.266Z" fill="url(#paint4_linear_5_950)"/>
</mask>
<g mask="url(#mask0_5_950)">
<rect x="-148" y="-16" width="357.202" height="399.225" fill="#5C1A53"/>
</g>
</g>
<defs>
<linearGradient id="paint0_linear_5_950" x1="-21.3743" y1="81.0469" x2="-21.3743" y2="342.903" gradientUnits="userSpaceOnUse">
<stop stop-color="white" stop-opacity="0.79"/>
<stop offset="1" stop-color="#8196BD" stop-opacity="0"/>
</linearGradient>
<linearGradient id="paint1_linear_5_950" x1="102.387" y1="0" x2="102.387" y2="265.65" gradientUnits="userSpaceOnUse">
<stop stop-color="white" stop-opacity="0.79"/>
<stop offset="1" stop-color="#8196BD" stop-opacity="0"/>
</linearGradient>
<linearGradient id="paint2_linear_5_950" x1="11.3536" y1="127.57" x2="11.3536" y2="362.396" gradientUnits="userSpaceOnUse">
<stop stop-color="white"/>
<stop offset="1" stop-color="#8196BD" stop-opacity="0"/>
</linearGradient>
<linearGradient id="paint3_linear_5_950" x1="11.5135" y1="1.49219" x2="11.5135" y2="92.7196" gradientUnits="userSpaceOnUse">
<stop stop-color="white"/>
<stop offset="1" stop-color="#8196BD" stop-opacity="0"/>
</linearGradient>
<linearGradient id="paint4_linear_5_950" x1="54.7062" y1="67.5312" x2="54.7062" y2="375.001" gradientUnits="userSpaceOnUse">
<stop stop-color="white" stop-opacity="0.35"/>
<stop offset="1" stop-color="#8196BD" stop-opacity="0"/>
</linearGradient>
</defs>
</svg>
