<svg width="260" height="284" viewBox="0 0 260 284" fill="none" xmlns="http://www.w3.org/2000/svg">
<g opacity="0.1">
<mask id="mask0_5_663" style="mask-type:alpha" maskUnits="userSpaceOnUse" x="0" y="0" width="260" height="285">
<path d="M20.457 160.529L92.1039 61.375L163.751 160.529L92.1039 259.683L20.457 160.529Z" fill="url(#paint0_linear_5_663)"/>
<path d="M112.527 100.591L185.839 0L259.151 100.591L185.839 201.181L112.527 100.591Z" fill="url(#paint1_linear_5_663)"/>
<path d="M52.2852 185.528L116.895 96.6094L181.505 185.528L116.895 274.447L52.2852 185.528Z" fill="url(#paint2_linear_5_663)"/>
<path d="M92.0625 35.6846L117.011 1.14062L141.959 35.6846L117.011 70.2287L92.0625 35.6846Z" fill="url(#paint3_linear_5_663)"/>
<path d="M0 131.033L44.7793 67.0625L89.5585 131.033L44.7793 195.003L0 131.033Z" fill="url(#paint4_linear_5_663)"/>
<path d="M65.9219 167.575L149.723 51.1484L233.524 167.575L149.723 284.001L65.9219 167.575Z" fill="url(#paint5_linear_5_663)"/>
</mask>
<g mask="url(#mask0_5_663)">
<rect x="-102" y="-28" width="361" height="211" fill="#D9D9D9"/>
</g>
</g>
<defs>
<linearGradient id="paint0_linear_5_663" x1="92.1039" y1="61.375" x2="92.1039" y2="259.683" gradientUnits="userSpaceOnUse">
<stop stop-color="white" stop-opacity="0.79"/>
<stop offset="1" stop-color="#8196BD" stop-opacity="0"/>
</linearGradient>
<linearGradient id="paint1_linear_5_663" x1="185.839" y1="0" x2="185.839" y2="201.181" gradientUnits="userSpaceOnUse">
<stop stop-color="white" stop-opacity="0.79"/>
<stop offset="1" stop-color="#8196BD" stop-opacity="0"/>
</linearGradient>
<linearGradient id="paint2_linear_5_663" x1="116.895" y1="96.6094" x2="116.895" y2="274.447" gradientUnits="userSpaceOnUse">
<stop stop-color="white"/>
<stop offset="1" stop-color="#8196BD" stop-opacity="0"/>
</linearGradient>
<linearGradient id="paint3_linear_5_663" x1="117.011" y1="1.14062" x2="117.011" y2="70.2287" gradientUnits="userSpaceOnUse">
<stop stop-color="white"/>
<stop offset="1" stop-color="#8196BD" stop-opacity="0"/>
</linearGradient>
<linearGradient id="paint4_linear_5_663" x1="44.7793" y1="67.0625" x2="44.7793" y2="195.003" gradientUnits="userSpaceOnUse">
<stop stop-color="white"/>
<stop offset="1" stop-color="#8196BD" stop-opacity="0"/>
</linearGradient>
<linearGradient id="paint5_linear_5_663" x1="149.723" y1="51.1484" x2="149.723" y2="284.001" gradientUnits="userSpaceOnUse">
<stop stop-color="white" stop-opacity="0.35"/>
<stop offset="1" stop-color="#8196BD" stop-opacity="0"/>
</linearGradient>
</defs>
</svg>
