<svg width="16" height="18" viewBox="0 0 16 18" fill="none" xmlns="http://www.w3.org/2000/svg">
<path d="M8 0.55957C3.58892 0.55957 0 4.34605 0 8.99994C0 13.6538 3.58892 17.4403 8 17.4403C12.4111 17.4403 16 13.6538 16 8.99994C16 4.34605 12.4111 0.55957 8 0.55957ZM8 1.85809C11.7452 1.85809 14.7692 5.04855 14.7692 8.99994C14.7692 12.9513 11.7452 16.1418 8 16.1418C4.25477 16.1418 1.23077 12.9513 1.23077 8.99994C1.23077 5.04855 4.25477 1.85809 8 1.85809ZM7.94215 5.10438C5.89662 5.10438 4.24985 6.8418 4.24985 8.99994C4.24985 11.1581 5.89662 12.8955 7.94215 12.8955C9.41846 12.8955 10.6806 11.9619 11.2689 10.6432L10.1538 10.0959C9.75692 10.9854 8.928 11.597 7.94215 11.597C6.54092 11.597 5.48062 10.4783 5.48062 8.99994C5.48062 7.52157 6.54092 6.4029 7.94215 6.4029C8.928 6.4029 9.75754 7.01385 10.1538 7.90464L11.2695 7.35666C10.68 6.03802 9.41846 5.10438 7.94154 5.10438H7.94215Z" fill="#5C1A53"/>
</svg>
