<svg width="60" height="59" viewBox="0 0 60 59" fill="none" xmlns="http://www.w3.org/2000/svg">
<path d="M34.5255 16.0858L30.0352 8.04115L34.5255 0L39.0194 8.04115L34.5255 16.0858Z" fill="#5C1A53"/>
<path d="M25.5216 16.0858L21.0312 8.04115L25.5216 0L30.012 8.04115L25.5216 16.0858Z" fill="#DAA75B"/>
<path d="M34.5255 32.1561L30.0352 24.1115L34.5255 16.0703L39.0194 24.1115L34.5255 32.1561Z" fill="#DAA75B"/>
<path d="M25.5216 32.1561L21.0312 24.1115L25.5216 16.0703L30.012 24.1115L25.5216 32.1561Z" fill="#5C1A53"/>
<path d="M7.47475 32.2709L2.98438 40.3155H11.9651L21.0267 24.1115L16.5363 16.0703L12.046 24.1115L7.47475 32.2709L2.98438 40.3155L7.47475 32.2709Z" fill="#5C1A53"/>
<path d="M52.5906 32.2709L57.081 40.3155H48.0968L39.0352 24.1115L43.5256 16.0703L48.0194 24.1115L52.5906 32.2709L57.081 40.3155L52.5906 32.2709Z" fill="#DAA75B"/>
<path d="M7.3197 57.5789L4.55433 48.9531H4.12676L1.42364 57.3841L1.41217 57.408C1.06323 58.4401 0.619258 58.599 0.0294873 58.7118L0 58.7169V58.8673H2.47048V58.7306L2.44099 58.7255C1.97245 58.6537 1.74965 58.5597 1.64808 58.3905C1.55142 58.2299 1.56289 57.9821 1.68248 57.5874L2.29191 55.6548H5.36528L5.95996 57.5174C6.09102 57.9104 6.10249 58.165 5.996 58.3427C5.87641 58.5426 5.59626 58.6588 5.08676 58.722L5.05564 58.7255V58.8656H8.50417V58.7152L8.47468 58.7101C7.86689 58.599 7.61788 58.3547 7.31644 57.5772L7.3197 57.5789ZM5.27517 55.3575H2.38366L3.83024 50.8601L5.2768 55.3575H5.27517Z" fill="#5C1A53"/>
<path d="M15.8922 58.2761C15.5301 58.4315 15.1468 58.5409 14.7503 58.6007C14.3539 58.6605 13.9607 58.6913 13.5855 58.6913C12.9581 58.6913 12.3978 58.5529 11.9211 58.2812C11.4427 58.0095 11.0397 57.6455 10.7219 57.2047C10.4024 56.7604 10.1599 56.2495 10.001 55.6873C9.84048 55.1217 9.76021 54.5407 9.76021 53.958C9.76021 53.3754 9.84376 52.7961 10.0076 52.2356C10.1714 51.6769 10.4172 51.1711 10.735 50.7319C11.0544 50.2928 11.4558 49.9322 11.9276 49.6605C12.3994 49.3889 12.9564 49.2522 13.5855 49.2522C13.923 49.2522 14.272 49.2829 14.6226 49.3427C14.9715 49.4025 15.3106 49.5119 15.6284 49.6691L15.6596 49.6845L15.7857 49.4196L15.7497 49.4042C15.3843 49.2556 15.0288 49.1411 14.6946 49.0659C14.3604 48.9907 13.9869 48.9531 13.5839 48.9531C12.9302 48.9531 12.2798 49.0505 11.6508 49.2419C11.02 49.435 10.4516 49.7391 9.95681 50.1458C9.46206 50.5525 9.05575 51.0788 8.7494 51.7076C8.44305 52.3364 8.28906 53.0917 8.28906 53.9546C8.28906 54.8175 8.44469 55.5899 8.7494 56.2221C9.05575 56.8544 9.46042 57.3824 9.95517 57.7925C10.4499 58.2009 11.0184 58.5067 11.6475 58.7032C12.2749 58.8997 12.9253 58.9989 13.5806 58.9989C13.9738 58.9989 14.3948 58.963 14.8306 58.8929C15.268 58.8229 15.6678 58.7049 16.0151 58.5477L16.0478 58.5324L15.9168 58.2402L15.8856 58.2726L15.8922 58.2761Z" fill="#5C1A53"/>
<path d="M24.2008 58.2761C23.8387 58.4315 23.4554 58.5409 23.0589 58.6007C22.6625 58.6605 22.2693 58.6913 21.8941 58.6913C21.2667 58.6913 20.7064 58.5529 20.2297 58.2812C19.7513 58.0095 19.3483 57.6455 19.0305 57.2047C18.711 56.7604 18.4686 56.2495 18.3096 55.6873C18.1491 55.1217 18.0688 54.5407 18.0688 53.958C18.0688 53.3754 18.1524 52.7961 18.3162 52.2356C18.48 51.6769 18.7258 51.1711 19.0436 50.7319C19.363 50.2928 19.7644 49.9322 20.2362 49.6605C20.708 49.3889 21.2651 49.2522 21.8941 49.2522C22.2316 49.2522 22.5806 49.2829 22.9311 49.3427C23.2801 49.4025 23.6192 49.5119 23.937 49.6691L23.9682 49.6845L24.0943 49.4196L24.0583 49.4042C23.6929 49.2556 23.3374 49.1411 23.0032 49.0659C22.669 48.9907 22.2955 48.9531 21.8925 48.9531C21.2388 48.9531 20.5884 49.0505 19.9594 49.2419C19.3286 49.435 18.7602 49.7391 18.2654 50.1458C17.7707 50.5525 17.3644 51.0788 17.058 51.7076C16.7517 52.3364 16.5977 53.0917 16.5977 53.9546C16.5977 54.8175 16.7533 55.5899 17.058 56.2221C17.3644 56.8544 17.769 57.3824 18.2638 57.7925C18.7585 58.2009 19.327 58.5067 19.9561 58.7032C20.5835 58.8997 21.2339 58.9989 21.8892 58.9989C22.2824 58.9989 22.7034 58.963 23.1392 58.8929C23.5766 58.8229 23.9764 58.7049 24.3237 58.5477L24.3564 58.5324L24.2254 58.2402L24.1942 58.2726L24.2008 58.2761Z" fill="#5C1A53"/>
<path d="M31.5979 56.2917L31.593 56.2832C30.9016 54.8102 30.1742 54.0396 29.1946 53.7525C30.0448 53.6705 30.7673 53.4518 31.2948 53.1134C31.9665 52.6828 32.3072 52.0831 32.3072 51.3278C32.3072 49.7677 31.0671 48.9766 28.6195 48.9766H24.9531V49.1372L24.9843 49.1406C25.9115 49.2653 26.0508 49.4772 26.0508 50.7554V57.1136C26.0508 58.2892 25.9246 58.6019 24.9843 58.7284L24.9531 58.7318V58.8907H28.5425V58.7318L28.5114 58.7284C27.4711 58.6002 27.3335 58.2875 27.3335 57.1136V53.7952H27.7971C28.9259 53.7952 29.3977 54.5795 30.284 56.5053C31.1523 58.3542 31.7486 58.8924 34.0225 58.8924H34.0569V58.6635H34.0225C33.0412 58.6635 32.476 58.1098 31.5979 56.2917ZM27.3335 49.2841H28.4328C29.9482 49.2841 30.8164 50.0292 30.8164 51.3278C30.8164 53.2775 28.8538 53.4877 28.0085 53.4877H27.3335V49.2824V49.2841Z" fill="#5C1A53"/>
<path d="M41.9112 57.5857L41.8915 57.5943C40.8119 58.1616 39.9944 58.4418 39.1589 58.5289H37.4387V53.5548H40.0337V53.2438H37.4387V49.2641H38.6084C39.3997 49.3308 40.2156 49.6024 41.5376 50.1134L41.5573 50.1202L41.5884 50.0963V48.9531H34.793V49.112L34.8241 49.1155C35.7595 49.2282 35.8775 49.3991 35.8775 50.6397V57.1807C35.8775 58.2948 35.7743 58.5905 34.8241 58.7049L34.793 58.7084V58.869H41.9194L41.9488 58.8519V57.6096L41.9095 57.5874L41.9112 57.5857Z" fill="#5C1A53"/>
<path d="M51.345 51.6154L51.3418 51.6068C51.0453 50.9831 50.634 50.4671 50.1196 50.0775C49.6069 49.6879 49.0007 49.4008 48.3159 49.2214C47.6328 49.0437 46.8955 48.9531 46.1272 48.9531H42.6836V49.112L42.7147 49.1155C43.5158 49.2111 43.6993 49.3803 43.7501 50.0621V57.6643C43.701 58.3786 43.4782 58.6007 42.7147 58.693L42.6836 58.6964V58.8656H46.1272C46.8726 58.8656 47.6098 58.7716 48.3159 58.587C48.9991 58.4093 49.6052 58.1206 50.1196 57.731C50.634 57.3414 51.0453 56.8236 51.3418 56.1948C51.6383 55.5643 51.789 54.7902 51.789 53.8897C51.789 52.9892 51.6399 52.2373 51.345 51.6136V51.6154ZM45.2196 49.2658H46.1272C46.8382 49.2658 47.464 49.3496 47.9883 49.517C48.5109 49.6828 48.9499 49.9527 49.294 50.315C49.638 50.679 49.8985 51.1574 50.0656 51.7401C50.2343 52.3245 50.3195 53.049 50.3195 53.8914C50.3195 54.7338 50.2376 55.4395 50.077 56.0205L50.0639 56.0632C49.8952 56.6493 49.6364 57.1312 49.2923 57.4952C48.9483 57.8591 48.5092 58.1274 47.9866 58.2931C47.4624 58.4606 46.8366 58.5443 46.1256 58.5443H45.218V49.2658H45.2196Z" fill="#5C1A53"/>
<path d="M59.9741 58.7118C59.3663 58.6007 59.1173 58.3564 58.8158 57.5789L56.0504 48.9531H55.6229L52.9197 57.3841L52.9083 57.408C52.5593 58.4401 52.1154 58.599 51.5256 58.7118L51.4961 58.7169V58.8673H53.9666V58.7306L53.9371 58.7255C53.4686 58.6537 53.2458 58.5597 53.1442 58.3905C53.0475 58.2299 53.059 57.9821 53.1786 57.5874L53.788 55.6548H56.8614L57.4561 57.5174C57.5871 57.9104 57.5986 58.165 57.4921 58.3427C57.3725 58.5426 57.0924 58.6588 56.5829 58.722L56.5517 58.7255V58.8656H60.0003V58.7152L59.9708 58.7101L59.9741 58.7118ZM56.7713 55.3575H53.8798L55.3263 50.8601L56.7729 55.3575H56.7713Z" fill="#5C1A53"/>
</svg>
