<svg width="117" height="104" viewBox="0 0 117 104" fill="none" xmlns="http://www.w3.org/2000/svg">
<path fill-rule="evenodd" clip-rule="evenodd" d="M92.9756 92.2578C93.5827 91.6326 94.0221 90.8349 94.2016 89.9287L106.621 27.2198C107.107 24.7622 105.499 22.4362 103.027 22.0245L92.9756 20.3503V23.1521L102.49 24.7369C103.455 24.8976 104.083 25.8059 103.893 26.7655L92.9756 81.8929V92.2578Z" fill="#5C1A53"/>
<path fill-rule="evenodd" clip-rule="evenodd" d="M26.6167 92.2578C26.0096 91.6326 25.5702 90.8349 25.3907 89.9287L12.9716 27.2198C12.4849 24.7622 14.0937 22.4362 16.565 22.0245L26.6167 20.3503V23.1521L17.1022 24.7369C16.1372 24.8976 15.509 25.8059 15.6991 26.7655L26.6167 81.8929V92.2578Z" fill="#5C1A53"/>
<rect x="26.6167" y="10.6723" width="66.3603" height="91.2454" rx="3.15384" stroke="#5C1A53" stroke-width="2.76501" stroke-linejoin="round"/>
<rect x="37.6787" y="74.2553" width="44.2402" height="3.05105" rx="1.52552" fill="#5C1A53"/>
<rect x="37.6787" y="82.2668" width="44.2402" height="3.05105" rx="1.52552" fill="#5C1A53"/>
<circle cx="112.918" cy="99.7445" r="2.51305" stroke="#5C1A53" stroke-width="1.67537"/>
<circle cx="14.7599" cy="9.87746" r="3.35074" fill="#5C1A53"/>
<path d="M111.152 1.75898L109.635 7.42297" stroke="#5C1A53" stroke-width="1.67537" stroke-linecap="round"/>
<path d="M113.224 5.35226L107.56 3.8346" stroke="#5C1A53" stroke-width="1.67537" stroke-linecap="round"/>
<path d="M4.66455 85.3294V91.1932" stroke="#5C1A53" stroke-width="1.67537" stroke-linecap="round"/>
<path d="M7.59521 88.2585L1.73142 88.2585" stroke="#5C1A53" stroke-width="1.67537" stroke-linecap="round"/>
<mask id="path-12-outside-1_496_1733" maskUnits="userSpaceOnUse" x="40.3947" y="24.0754" width="38.8909" height="38.8909" fill="black">
<rect fill="white" x="40.3947" y="24.0754" width="38.8909" height="38.8909"/>
<path fill-rule="evenodd" clip-rule="evenodd" d="M72.7555 34.1835L72.7545 34.1844L72.7558 34.1858L51.2491 55.6925L51.2495 55.6929L47.3784 56.4672C46.8947 56.5639 46.4683 56.1375 46.565 55.6538L47.3392 51.7826L47.3387 51.7822L68.7742 30.3467C68.7973 30.3219 68.8209 30.2974 68.8451 30.2732C69.9249 29.1934 71.6756 29.1934 72.7555 30.2732C73.8353 31.353 73.8353 33.1037 72.7555 34.1835Z"/>
</mask>
<path d="M72.7545 34.1844L70.8 32.2286C70.2812 32.7471 69.9896 33.4505 69.9895 34.184C69.9894 34.9175 70.2807 35.6209 70.7993 36.1396L72.7545 34.1844ZM72.7555 34.1835L74.7099 36.1393L74.7106 36.1386L72.7555 34.1835ZM72.7558 34.1858L74.711 36.1409C75.7908 35.0611 75.7908 33.3104 74.711 32.2306L72.7558 34.1858ZM51.2491 55.6925L49.2939 53.7374C48.7607 54.2705 48.4684 54.9984 48.4847 55.7523C48.501 56.5061 48.8245 57.2207 49.3802 57.7303L51.2491 55.6925ZM51.2495 55.6929L51.7918 58.4042C52.8128 58.2 53.6325 57.4396 53.9126 56.4368C54.1927 55.434 53.8857 54.3589 53.1184 53.6551L51.2495 55.6929ZM47.3784 56.4672L46.8361 53.7559L46.8361 53.7559L47.3784 56.4672ZM46.565 55.6538L43.8537 55.1116L43.8537 55.1116L46.565 55.6538ZM47.3392 51.7826L50.0505 52.3249C50.2318 51.4183 49.948 50.4812 49.2943 49.8275L47.3392 51.7826ZM47.3387 51.7822L45.3836 49.827C44.865 50.3456 44.5737 51.0489 44.5737 51.7822C44.5737 52.5155 44.865 53.2188 45.3836 53.7374L47.3387 51.7822ZM68.7742 30.3467L70.7293 32.3019C70.753 32.2782 70.7762 32.2541 70.799 32.2296L68.7742 30.3467ZM74.709 36.1403L74.7099 36.1393L70.801 32.2276L70.8 32.2286L74.709 36.1403ZM74.711 32.2306L74.7097 32.2293L70.7993 36.1396L70.8006 36.1409L74.711 32.2306ZM53.2042 57.6477L74.711 36.1409L70.8006 32.2306L49.2939 53.7374L53.2042 57.6477ZM53.1184 53.6551L53.1179 53.6547L49.3802 57.7303L49.3806 57.7307L53.1184 53.6551ZM47.9207 59.1785L51.7918 58.4042L50.7072 52.9816L46.8361 53.7559L47.9207 59.1785ZM43.8537 55.1116C43.37 57.53 45.5023 59.6622 47.9207 59.1785L46.8361 53.7559C48.2872 53.4657 49.5665 54.745 49.2763 56.196L43.8537 55.1116ZM44.6279 51.2404L43.8537 55.1116L49.2763 56.196L50.0505 52.3249L44.6279 51.2404ZM45.3836 53.7374L45.384 53.7378L49.2943 49.8275L49.2939 49.827L45.3836 53.7374ZM66.819 28.3916L45.3836 49.827L49.2939 53.7374L70.7293 32.3019L66.819 28.3916ZM66.89 28.318C66.8421 28.3659 66.7952 28.4145 66.7493 28.4639L70.799 32.2296C70.7994 32.2293 70.7998 32.2288 70.8003 32.2283L66.89 28.318ZM74.7106 28.318C72.551 26.1584 69.0496 26.1584 66.89 28.318L70.8003 32.2283L74.7106 28.318ZM74.7106 36.1386C76.8702 33.979 76.8702 30.4776 74.7106 28.318L70.8003 32.2283L74.7106 36.1386Z" fill="#5C1A53" mask="url(#path-12-outside-1_496_1733)"/>
<path fill-rule="evenodd" clip-rule="evenodd" d="M61.0338 36.141L52.3375 27.4447C50.9877 26.095 48.7994 26.095 47.4496 27.4447L44.5169 30.3775C43.1671 31.7272 43.1671 33.9156 44.5169 35.2654L53.2131 43.9616L55.1683 42.0065L46.472 33.3102C46.2021 33.0402 46.2021 32.6026 46.472 32.3326L49.4048 29.3999C49.6747 29.1299 50.1124 29.1299 50.3823 29.3999L59.0786 38.0961L61.0338 36.141ZM61.0338 47.8719L69.7137 56.5519C69.9837 56.8218 70.4214 56.8218 70.6913 56.5519L73.6241 53.6192C73.894 53.3492 73.894 52.9115 73.6241 52.6416L64.9441 43.9616L66.8993 42.0065L75.5792 50.6864C76.929 52.0362 76.929 54.2246 75.5792 55.5743L72.6465 58.5071C71.2967 59.8568 69.1083 59.8568 67.7586 58.5071L59.0786 49.8271L61.0338 47.8719Z" fill="#5C1A53"/>
<path d="M65.8706 31.4151L70.7585 36.303" stroke="#5C1A53" stroke-width="2.76501" stroke-linecap="round"/>
<path d="M55.1895 32.261L52.7455 34.705" stroke="#5C1A53" stroke-width="2.76501" stroke-linecap="round"/>
<path d="M70.832 47.8995L68.3881 50.3434" stroke="#5C1A53" stroke-width="2.76501" stroke-linecap="round"/>
</svg>
