<svg width="107" height="98" viewBox="0 0 107 98" fill="none" xmlns="http://www.w3.org/2000/svg">
<rect x="10.2402" y="11.1616" width="89.264" height="74.3867" rx="6.71547" stroke="#5C1A53" stroke-width="2.47956"/>
<line x1="31.3159" y1="43.3927" x2="78.4275" y2="43.3927" stroke="#5C1A53" stroke-width="2.47956" stroke-linecap="round"/>
<circle cx="42.4737" cy="43.3931" r="2.47956" fill="#5C1A53" stroke="#5C1A53" stroke-width="2.47956"/>
<circle cx="42.4737" cy="43.3931" r="2.47956" stroke="#5C1A53" stroke-width="2.47956"/>
<line x1="31.3159" y1="55.7913" x2="78.4275" y2="55.7913" stroke="#5C1A53" stroke-width="2.47956" stroke-linecap="round"/>
<circle cx="67.2691" cy="55.7917" r="2.47956" stroke="#5C1A53" stroke-width="2.47956"/>
<line x1="31.3159" y1="68.1899" x2="78.4275" y2="68.1899" stroke="#5C1A53" stroke-width="2.47956" stroke-linecap="round"/>
<circle cx="39.9942" cy="68.1903" r="2.47956" stroke="#5C1A53" stroke-width="2.47956"/>
<path d="M10.2397 17.8764C10.2397 14.1676 13.2464 11.1609 16.9552 11.1609H92.7883C96.4971 11.1609 99.5037 14.1676 99.5037 17.8764V26.0383H10.2397V17.8764Z" stroke="#5C1A53" stroke-width="2.47956"/>
<circle cx="19.5379" cy="18.8637" r="1.85967" fill="#5C1A53"/>
<circle cx="25.7366" cy="18.8637" r="1.85967" fill="#5C1A53"/>
<circle cx="31.9358" cy="18.8637" r="1.85967" fill="#5C1A53"/>
<path d="M4.2207 4.39919L2.85972 9.47843" stroke="#5C1A53" stroke-width="1.50241" stroke-linecap="round"/>
<path d="M6.07861 7.6279L0.999371 6.26692" stroke="#5C1A53" stroke-width="1.50241" stroke-linecap="round"/>
<path d="M103.371 91.7457V97.0041" stroke="#5C1A53" stroke-width="1.50241" stroke-linecap="round"/>
<path d="M105.999 94.3731L100.741 94.3731" stroke="#5C1A53" stroke-width="1.50241" stroke-linecap="round"/>
<circle cx="67.7929" cy="3.00502" r="2.25361" stroke="#5C1A53" stroke-width="1.50241"/>
<circle cx="20.6821" cy="94.7487" r="3.00481" fill="#5C1A53"/>
</svg>
