<svg width="154" height="134" viewBox="0 0 154 134" fill="none" xmlns="http://www.w3.org/2000/svg">
<path d="M63.1567 124.147L61.2903 131.112" stroke="#5C1A53" stroke-width="2.06038" stroke-linecap="round"/>
<path d="M65.7065 128.572L58.7409 126.705" stroke="#5C1A53" stroke-width="2.06038" stroke-linecap="round"/>
<circle cx="123.117" cy="4.92545" r="3.09057" stroke="#5C1A53" stroke-width="2.06038"/>
<path d="M14.4429 27.5236C14.4429 24.0281 17.2765 21.1944 20.7721 21.1944L132.229 21.1944C135.725 21.1944 138.559 24.0281 138.559 27.5236L138.559 102.805L14.4429 102.805L14.4429 27.5236Z" stroke="#5C1A53" stroke-width="3.40043" stroke-linejoin="round"/>
<line x1="79.0518" y1="56.8963" x2="102.855" y2="56.8963" stroke="#5C1A53" stroke-width="3.40043" stroke-linecap="round"/>
<line x1="79.0518" y1="67.0976" x2="102.855" y2="67.0976" stroke="#5C1A53" stroke-width="3.40043" stroke-linecap="round"/>
<line x1="79.0518" y1="77.2989" x2="116.457" y2="77.2989" stroke="#5C1A53" stroke-width="3.40043" stroke-linecap="round"/>
<line x1="79.0518" y1="87.5002" x2="116.457" y2="87.5002" stroke="#5C1A53" stroke-width="3.40043" stroke-linecap="round"/>
<path d="M5.94238 102.806L147.06 102.806L147.06 110.078C147.06 113.574 144.227 116.408 140.731 116.408L12.2716 116.408C8.77607 116.408 5.94238 113.574 5.94238 110.078L5.94238 102.806Z" stroke="#5C1A53" stroke-width="3.40043" stroke-linejoin="round"/>
<path d="M5.30762 14.413V21.6243" stroke="#5C1A53" stroke-width="2.06038" stroke-linecap="round"/>
<path d="M8.9126 18.0158L1.70127 18.0158" stroke="#5C1A53" stroke-width="2.06038" stroke-linecap="round"/>
<path d="M38.6458 75.4027L37.6223 76.7604L38.6458 75.4027ZM58.2453 75.4022L57.2218 74.0446L58.2453 75.4022ZM62.907 62.7141C62.907 67.3268 60.6853 71.4336 57.2218 74.0446L59.2687 76.7599C63.5393 73.5405 66.3074 68.4496 66.3074 62.7141H62.907ZM48.4452 48.4595C56.453 48.4595 62.907 54.8621 62.907 62.7141H66.3074C66.3074 52.9429 58.2895 45.0591 48.4452 45.0591V48.4595ZM33.9834 62.7141C33.9834 54.8621 40.4374 48.4595 48.4452 48.4595V45.0591C38.6009 45.0591 30.583 52.9429 30.583 62.7141H33.9834ZM39.6692 74.0449C36.2054 71.434 33.9834 67.327 33.9834 62.7141H30.583C30.583 68.4499 33.3514 73.541 37.6223 76.7604L39.6692 74.0449ZM41.829 81.1881H55.0617V77.7877H41.829V81.1881ZM54.8198 78.5358H42.0712V81.9362H54.8198V78.5358ZM58.9613 85.8144V82.6773H55.5609V85.8144H58.9613ZM42.0712 89.9559H54.8198V86.5555H42.0712V89.9559ZM37.9296 82.6773V85.8144H41.3301V82.6773H37.9296ZM42.0712 86.5555C41.6619 86.5555 41.3301 86.2237 41.3301 85.8144H37.9296C37.9296 88.1017 39.7839 89.9559 42.0712 89.9559V86.5555ZM55.5609 85.8144C55.5609 86.2237 55.2291 86.5555 54.8198 86.5555V89.9559C57.1071 89.9559 58.9613 88.1017 58.9613 85.8144H55.5609ZM42.0712 78.5358C39.7839 78.5358 37.9296 80.39 37.9296 82.6773H41.3301C41.3301 82.268 41.6619 81.9362 42.0712 81.9362V78.5358ZM54.8198 81.9362C55.2291 81.9362 55.5609 82.268 55.5609 82.6773H58.9613C58.9613 80.39 57.1071 78.5358 54.8198 78.5358V81.9362ZM37.9296 77.2887C37.9296 79.4423 39.6754 81.1881 41.829 81.1881V77.7877C41.5534 77.7877 41.3301 77.5643 41.3301 77.2887H37.9296ZM37.6223 76.7604C37.8493 76.9315 37.9296 77.141 37.9296 77.2887H41.3301C41.3301 75.9407 40.6366 74.7742 39.6692 74.0449L37.6223 76.7604ZM55.0617 81.1881C57.2154 81.1881 58.9613 79.4422 58.9613 77.2884H55.5609C55.5609 77.5642 55.3374 77.7877 55.0617 77.7877V81.1881ZM57.2218 74.0446C56.2544 74.7738 55.5609 75.9404 55.5609 77.2884H58.9613C58.9613 77.1406 59.0417 76.931 59.2687 76.7599L57.2218 74.0446Z" fill="#5C1A53"/>
<path fill-rule="evenodd" clip-rule="evenodd" d="M42.7411 64.5585C41.724 64.5585 40.9747 63.756 40.9747 62.8583C40.9747 61.9605 41.724 61.1581 42.7411 61.1581C43.2448 61.1581 43.6586 61.2814 44.2976 61.7738C44.6591 62.0525 45.0363 62.4046 45.4739 62.8598C45.0648 63.2815 44.6991 63.6201 44.3453 63.8939C43.6518 64.4305 43.2032 64.5585 42.7411 64.5585ZM42.7411 67.9589C39.8875 67.9589 37.5742 65.6753 37.5742 62.8583C37.5742 60.0413 39.8875 57.7576 42.7411 57.7576C44.9861 57.7576 46.5204 58.9647 48.4047 61.0136C50.289 58.9647 51.8233 57.7576 54.0683 57.7576C56.9219 57.7576 59.2352 60.0413 59.2352 62.8583C59.2352 65.6753 56.9219 67.9589 54.0683 67.9589C51.8477 67.9589 50.2304 66.6871 48.4047 64.709C46.579 66.6871 44.9617 67.9589 42.7411 67.9589ZM54.0683 64.5585C55.0854 64.5585 55.8347 63.756 55.8347 62.8583C55.8347 61.9605 55.0854 61.1581 54.0683 61.1581C53.5646 61.1581 53.1508 61.2814 52.5118 61.7738C52.1503 62.0525 51.7731 62.4046 51.3354 62.8598C51.7446 63.2815 52.1103 63.6201 52.4641 63.8939C53.1576 64.4305 53.6062 64.5585 54.0683 64.5585Z" fill="#5C1A53"/>
<path d="M48.4438 35.6503V40.533" stroke="#5C1A53" stroke-width="2.44133" stroke-linecap="round"/>
<path d="M39.7886 36.8711L41.0687 41.5874" stroke="#5C1A53" stroke-width="2.44133" stroke-linecap="round"/>
<path d="M57.145 36.8711L55.8649 41.5874" stroke="#5C1A53" stroke-width="2.44133" stroke-linecap="round"/>
<circle cx="131.637" cy="129.036" r="4.12076" fill="#5C1A53"/>
</svg>
