<svg width="50" height="41" viewBox="0 0 50 41" fill="none" xmlns="http://www.w3.org/2000/svg">
<path d="M28.6363 16.3229L24.5596 8.3023L28.6363 0.285156L32.7162 8.3023L28.6363 16.3229Z" fill="#5C1A53"/>
<path d="M20.4605 16.3229L16.3838 8.3023L20.4605 0.285156L24.5372 8.3023L20.4605 16.3229Z" fill="#DAA75B"/>
<path d="M28.6353 32.3542L24.5586 24.3335L28.6353 16.3164L32.7152 24.3335L28.6353 32.3542Z" fill="#DAA75B"/>
<path d="M20.4595 32.3542L16.3828 24.3335L20.4595 16.3164L24.5362 24.3335L20.4595 32.3542Z" fill="#5C1A53"/>
<path d="M4.07669 32.4686L0 40.4892H8.1534L16.3802 24.3335L12.3035 16.3164L8.22676 24.3335L4.07669 32.4686L0 40.4892L4.07669 32.4686Z" fill="#5C1A53"/>
<path d="M45.0352 32.4686L49.1119 40.4892H40.9553L32.7285 24.3335L36.8052 16.3164L40.8851 24.3335L45.0352 32.4686L49.1119 40.4892L45.0352 32.4686Z" fill="#DAA75B"/>
</svg>
